<svg width="149" height="148" viewBox="0 0 149 148" fill="none" xmlns="http://www.w3.org/2000/svg">
<path d="M84.1703 14.9113L76.4046 2.77705C75.618 1.54783 73.8222 1.54784 73.0355 2.77705L65.2698 14.9113L54.093 5.74359C52.9635 4.81711 51.254 5.37489 50.8883 6.78926L47.2931 20.6929L33.8064 15.3952C32.443 14.8597 30.9854 15.9232 31.0793 17.385L31.9985 31.6921L17.5312 30.7809C16.0644 30.6886 15.0023 32.1567 15.5489 33.5209L20.8837 46.8347L6.85571 50.3905C5.42734 50.7526 4.86766 52.4825 5.81326 53.6126L15.0393 64.639L2.81887 72.3058C1.56939 73.0897 1.56939 74.9103 2.81887 75.6942L15.0393 83.361L5.81326 94.3874C4.86766 95.5175 5.42735 97.2474 6.85571 97.6095L20.8837 101.165L15.5489 114.479C15.0023 115.843 16.0644 117.311 17.5312 117.219L31.9985 116.308L31.0793 130.615C30.9854 132.077 32.443 133.14 33.8064 132.605L47.2931 127.307L50.8883 141.211C51.254 142.625 52.9635 143.183 54.093 142.256L65.2698 133.089L73.0355 145.223C73.8222 146.452 75.618 146.452 76.4046 145.223L84.1703 133.089L95.3472 142.256C96.4767 143.183 98.1862 142.625 98.5519 141.211L102.147 127.307L115.634 132.605C116.997 133.14 118.455 132.077 118.361 130.615L117.442 116.308L131.909 117.219C133.376 117.311 134.438 115.843 133.891 114.479L128.556 101.165L142.584 97.6095C144.013 97.2474 144.573 95.5175 143.627 94.3874L134.401 83.361L146.621 75.6942C147.871 74.9103 147.871 73.0897 146.621 72.3058L134.401 64.639L143.627 53.6126C144.573 52.4825 144.013 50.7526 142.584 50.3905L128.556 46.8347L133.891 33.5209C134.438 32.1567 133.376 30.6886 131.909 30.7809L117.442 31.6921L118.361 17.385C118.455 15.9232 116.997 14.8597 115.634 15.3952L102.147 20.6929L98.5519 6.78926C98.1862 5.37489 96.4767 4.81711 95.3472 5.74359L84.1703 14.9113Z" fill="#F5BEE9" stroke="white" stroke-width="2"/>
</svg>
